<?xml version="1.0" encoding="UTF-8" standalone="no"?>
<svg
   xmlns:dc="http://purl.org/dc/elements/1.1/"
   xmlns:cc="http://creativecommons.org/ns#"
   xmlns:rdf="http://www.w3.org/1999/02/22-rdf-syntax-ns#"
   xmlns:svg="http://www.w3.org/2000/svg"
   xmlns="http://www.w3.org/2000/svg"
   width="18.690666mm"
   height="25.06093mm"
   viewBox="0 0 18.690666 25.06093"
   version="1.1"
   id="svg1220">
  <defs
     id="defs1214" />
  <metadata
     id="metadata1217">
    <rdf:RDF>
      <cc:Work
         rdf:about="">
        <dc:format>image/svg+xml</dc:format>
        <dc:type
           rdf:resource="http://purl.org/dc/dcmitype/StillImage" />
        <dc:title></dc:title>
      </cc:Work>
    </rdf:RDF>
  </metadata>
  <g
     id="layer1"
     transform="translate(-197.78562,27.649513)">
    <path
       style="fill:#ffffff;fill-opacity:1;stroke:none;stroke-width:0.264583px;stroke-linecap:butt;stroke-linejoin:miter;stroke-opacity:1"
       d="m 200.2419,-12.93288 c 0.46271,0.992729 1.07961,2.473787 2.02966,3.9448955 0.95004,1.4711088 2.23306,2.9322495 3.12948,3.8578135 0.89642,0.925564 1.40614,1.3155596 2.15461,1.0889149 0.74848,-0.2266446 1.73593,-1.0696632 2.5645,-2.0058763 0.82858,-0.9362131 1.4983,-1.9656546 2.20852,-3.0901216 0.71022,-1.124467 1.46091,-2.34391 2.02856,-3.608795 0.56765,-1.264885 0.95225,-2.575242 1.08948,-4.039344 0.13724,-1.464102 0.027,-3.08197 -0.32184,-4.410276 -0.34889,-1.328307 -0.93659,-2.367016 -1.79404,-3.188093 -0.85746,-0.821077 -1.98475,-1.42434 -3.18734,-1.842434 -1.20259,-0.418093 -2.48041,-0.650888 -3.66392,-0.494292 -1.1835,0.156596 -2.27243,0.702676 -3.23715,1.303378 -0.96473,0.600703 -1.80513,1.255969 -2.49803,1.97155 -0.6929,0.715581 -1.23819,1.491351 -1.55843,2.33312 -0.32024,0.841769 -0.4154,1.749298 -0.38189,2.789967 0.0335,1.04067 0.19565,2.214356 0.43109,3.053418 0.23544,0.839062 0.54402,1.343446 1.00674,2.336175 z"
       id="path1793" />
    <g
       id="g1201"
       style="fill:#3d8f62;fill-opacity:1"
       transform="matrix(0.26458333,0,0,0.26458333,220.8247,-20.781901)">
      <path
         d="m -51.755902,-25.956328 c -19.476223,0 -35.320945,15.8511 -35.320945,35.334977 0,29.029682 31.805211,57.37465 33.159649,58.567397 0.617422,0.543752 1.389199,0.816107 2.161296,0.816107 0.772096,0 1.543874,-0.272036 2.161615,-0.816107 1.3538,-1.192428 33.15933,-29.537397 33.15933,-58.567397 0,-19.483877 -15.844722,-35.334977 -35.320945,-35.334977 z m 0,86.964986 c -7.031787,-6.813967 -28.77997,-29.668471 -28.77997,-51.630009 0,-15.8769325 12.910691,-28.794002 28.77997,-28.794002 15.869279,0 28.77997,12.9170695 28.77997,28.794002 0,21.961219 -21.748183,44.815723 -28.77997,51.630009 z"
         id="path1015"
         style="fill:#818cf8;fill-opacity:1;stroke-width:0.318916" />
    </g>
    <path
       class="a"
       d="m 212.87283,-19.590054 a 0.38149242,0.38149242 0 0 0 -0.38155,0.381551 v 0.381551 h -1.04997 a 4.2988069,4.2988069 0 0 0 -0.89792,-2.165599 l 0.74306,-0.743106 0.2991,0.253251 a 0.38153311,0.38153311 0 1 0 0.53959,-0.539539 l -1.27181,-1.271836 a 0.38152668,0.38152668 0 0 0 -0.53958,0.539538 l 0.25326,0.29908 -0.7431,0.743103 a 4.2993281,4.2993281 0 0 0 -2.16561,-0.89786 v -1.05001 h 0.38155 a 0.381551,0.381551 0 0 0 0,-0.763102 h -1.78057 a 0.381551,0.381551 0 0 0 0,0.763102 h 0.38155 v 1.05001 a 4.2993281,4.2993281 0 0 0 -2.1656,0.89786 l -0.74311,-0.743103 0.25326,-0.29908 a 0.38152668,0.38152668 0 0 0 -0.53958,-0.539538 l -1.24252,1.271836 a 0.38153325,0.38153325 0 0 0 0.5396,0.539539 l 0.2698,-0.253251 0.74306,0.743106 a 4.2988069,4.2988069 0 0 0 -0.89793,2.165599 h -1.04996 v -0.381551 a 0.38155092,0.38155092 0 0 0 -0.7631,0 v 1.780571 a 0.38155092,0.38155092 0 0 0 0.7631,0 v -0.381551 h 1.04996 a 4.2988069,4.2988069 0 0 0 0.89792,2.165599 l -0.74305,0.743106 -0.29909,-0.25325 a 0.3815334,0.3815334 0 0 0 -0.5396,0.539539 l 1.27181,1.271837 a 0.38152724,0.38152724 0 1 0 0.53958,-0.53954 l -0.25326,-0.29908 0.74308,-0.743103 a 4.2993154,4.2993154 0 0 0 2.16563,0.897861 v 1.050011 h -0.38155 a 0.381551,0.381551 0 0 0 0,0.763102 h 1.78057 a 0.381551,0.381551 0 0 0 0,-0.763102 h -0.38155 v -1.050011 a 4.2993154,4.2993154 0 0 0 2.16563,-0.897861 l 0.74307,0.743103 -0.25326,0.29908 a 0.38152724,0.38152724 0 0 0 0.53958,0.53954 l 1.27182,-1.271837 a 0.3815334,0.3815334 0 1 0 -0.5396,-0.539539 l -0.29909,0.25325 -0.74306,-0.743106 a 4.2988069,4.2988069 0 0 0 0.89792,-2.165599 h 1.04997 v 0.381551 a 0.381551,0.381551 0 0 0 0.7631,0 v -1.780571 a 0.38149242,0.38149242 0 0 0 -0.38155,-0.381551 z m -7.12229,0.254367 a 0.89028545,0.89028545 0 1 1 0.89029,-0.890285 0.89027019,0.89027019 0 0 1 -0.89029,0.890285 z m 2.92523,3.306775 a 0.50873454,0.50873454 0 1 1 0.50873,-0.508734 0.5087498,0.5087498 0 0 1 -0.50873,0.508734 z"
       id="path928-3"
       style="fill:#0d23f2;fill-opacity:1;stroke-width:0.254368" />
  </g>
</svg>
