<?xml version="1.0" encoding="UTF-8" standalone="no"?>
<svg
   xmlns:dc="http://purl.org/dc/elements/1.1/"
   xmlns:cc="http://creativecommons.org/ns#"
   xmlns:rdf="http://www.w3.org/1999/02/22-rdf-syntax-ns#"
   xmlns:svg="http://www.w3.org/2000/svg"
   xmlns="http://www.w3.org/2000/svg"
   xmlns:xlink="http://www.w3.org/1999/xlink"
   width="18.690666mm"
   height="25.06093mm"
   viewBox="0 0 18.690666 25.06093"
   version="1.1"
   id="svg1220">
  <defs
     id="defs1214">
    <linearGradient
       id="linearGradient2666">
      <stop
         style="stop-color:#000000;stop-opacity:1;"
         offset="0"
         id="stop2662" />
      <stop
         style="stop-color:#000000;stop-opacity:0;"
         offset="1"
         id="stop2664" />
    </linearGradient>
    <linearGradient
       xlink:href="#linearGradient2666"
       id="linearGradient2668"
       x1="56.57487"
       y1="119.49869"
       x2="135.24992"
       y2="119.49869"
       gradientUnits="userSpaceOnUse" />
  </defs>
  <metadata
     id="metadata1217">
    <rdf:RDF>
      <cc:Work
         rdf:about="">
        <dc:format>image/svg+xml</dc:format>
        <dc:type
           rdf:resource="http://purl.org/dc/dcmitype/StillImage" />
        <dc:title></dc:title>
      </cc:Work>
    </rdf:RDF>
  </metadata>
  <g
     id="layer1"
     transform="translate(-197.78562,27.649513)">
    <path
       style="fill:#ffffff;fill-opacity:1;stroke:none;stroke-width:0.264583px;stroke-linecap:butt;stroke-linejoin:miter;stroke-opacity:1"
       d="m 200.2419,-12.93288 c 0.46271,0.992729 1.07961,2.473787 2.02966,3.9448955 0.95004,1.4711088 2.23306,2.9322495 3.12948,3.8578135 0.89642,0.925564 1.40614,1.3155596 2.15461,1.0889149 0.74848,-0.2266446 1.73593,-1.0696632 2.5645,-2.0058763 0.82858,-0.9362131 1.4983,-1.9656546 2.20852,-3.0901216 0.71022,-1.124467 1.46091,-2.34391 2.02856,-3.608795 0.56765,-1.264885 0.95225,-2.575242 1.08948,-4.039344 0.13724,-1.464102 0.027,-3.08197 -0.32184,-4.410276 -0.34889,-1.328307 -0.93659,-2.367016 -1.79404,-3.188093 -0.85746,-0.821077 -1.98475,-1.42434 -3.18734,-1.842434 -1.20259,-0.418093 -2.48041,-0.650888 -3.66392,-0.494292 -1.1835,0.156596 -2.27243,0.702676 -3.23715,1.303378 -0.96473,0.600703 -1.80513,1.255969 -2.49803,1.97155 -0.6929,0.715581 -1.23819,1.491351 -1.55843,2.33312 -0.32024,0.841769 -0.4154,1.749298 -0.38189,2.789967 0.0335,1.04067 0.19565,2.214356 0.43109,3.053418 0.23544,0.839062 0.54402,1.343446 1.00674,2.336175 z"
       id="path1793" />
    <path
       d="m 207.13095,-27.649514 c -5.15308,0 -9.34533,4.193937 -9.34533,9.349046 0,7.68077 8.41513,15.1803761 8.77349,15.4959571 0.16336,0.1438677 0.36756,0.2159283 0.57184,0.2159283 0.20428,0 0.40848,-0.071976 0.57193,-0.2159283 0.35819,-0.3154966 8.7734,-7.8151031 8.7734,-15.4959571 0,-5.155109 -4.19224,-9.349046 -9.34533,-9.349046 z m 0,23.0094859 c -1.86049,-1.8028621 -7.6147,-7.8497829 -7.6147,-13.6604399 0,-4.200771 3.41595,-7.618413 7.6147,-7.618413 4.19875,0 7.6147,3.417642 7.6147,7.618413 0,5.810573 -5.75421,11.8574934 -7.6147,13.6604399 z"
       id="path1015"
       style="fill:#818cf8;fill-opacity:1;stroke-width:0.0843799" />
    <g
       id="g2033"
       transform="matrix(0.06359171,0,0,0.06359171,201.03172,-23.397717)"
       style="fill-opacity:1;fill:#0f25ee">
      <g
         id="g1977"
         transform="matrix(-0.83110666,0.83110666,-0.83110666,-0.83110666,248.13332,108.61202)"
         style="fill:#0f25ee;fill-opacity:1">
	<path
   d="m 182.274,0.879 c -1.171,-1.172 -3.071,-1.172 -4.242,0 L 145.331,33.58 c -1.5,-0.209 -3.074,0.245 -4.227,1.398 l -9.146,9.146 -11.538,-11.537 c -1.953,-1.952 -5.118,-1.952 -7.071,0 l -76.01,76.01 -1.521,-1.521 c -1.953,-1.952 -5.118,-1.952 -7.071,0 -1.953,1.953 -1.953,5.119 0,7.071 l 5.057,5.057 11.538,11.538 -27.828,27.827 -8.978,-8.978 c -1.953,-1.952 -5.118,-1.952 -7.071,0 -1.953,1.953 -1.953,5.119 0,7.071 l 25.027,25.027 c 0.977,0.976 2.256,1.464 3.536,1.464 1.279,0 2.559,-0.488 3.536,-1.464 1.953,-1.953 1.953,-5.119 0,-7.071 l -8.978,-8.978 27.828,-27.827 11.536,11.537 5.057,5.057 c 0.977,0.976 2.256,1.464 3.536,1.464 1.28,0 2.559,-0.488 3.536,-1.464 1.953,-1.953 1.953,-5.119 0,-7.071 l -1.521,-1.521 76.01,-76.01 c 0.938,-0.938 1.464,-2.209 1.464,-3.536 0,-1.327 -0.527,-2.598 -1.464,-3.536 l -11.538,-11.538 9.146,-9.146 c 1.153,-1.153 1.607,-2.728 1.398,-4.227 l 32.7,-32.7 c 1.172,-1.172 1.172,-3.072 0,-4.243 z M 67.486,138.743 44.41,115.667 58.827,101.25 70.365,112.788 c 0.585,0.586 1.354,0.879 2.121,0.879 0.767,0 1.536,-0.293 2.121,-0.879 1.172,-1.171 1.172,-3.071 0,-4.242 L 63.07,97.008 70.198,89.88 81.736,101.418 c 0.585,0.585 1.354,0.878 2.121,0.878 0.767,0 1.536,-0.293 2.122,-0.879 1.171,-1.171 1.171,-3.071 0,-4.243 L 74.441,85.637 81.569,78.509 93.107,90.047 c 0.585,0.586 1.354,0.879 2.121,0.879 0.767,0 1.536,-0.293 2.121,-0.879 1.172,-1.171 1.172,-3.071 0,-4.242 L 85.812,74.266 92.94,67.138 104.477,78.676 c 0.586,0.586 1.354,0.879 2.122,0.879 0.768,0 1.536,-0.293 2.121,-0.878 1.172,-1.172 1.172,-3.071 0,-4.243 L 97.183,62.895 116.885,43.193 139.96,66.268 Z"
   id="path1975"
   style="fill:#0f25ee;fill-opacity:1" />

</g>
      <g
         id="g1979"
         style="fill-opacity:1;fill:#0f25ee">
</g>
      <g
         id="g1981"
         style="fill-opacity:1;fill:#0f25ee">
</g>
      <g
         id="g1983"
         style="fill-opacity:1;fill:#0f25ee">
</g>
      <g
         id="g1985"
         style="fill-opacity:1;fill:#0f25ee">
</g>
      <g
         id="g1987"
         style="fill-opacity:1;fill:#0f25ee">
</g>
      <g
         id="g1989"
         style="fill-opacity:1;fill:#0f25ee">
</g>
      <g
         id="g1991"
         style="fill-opacity:1;fill:#0f25ee">
</g>
      <g
         id="g1993"
         style="fill-opacity:1;fill:#0f25ee">
</g>
      <g
         id="g1995"
         style="fill-opacity:1;fill:#0f25ee">
</g>
      <g
         id="g1997"
         style="fill-opacity:1;fill:#0f25ee">
</g>
      <g
         id="g1999"
         style="fill-opacity:1;fill:#0f25ee">
</g>
      <g
         id="g2001"
         style="fill-opacity:1;fill:#0f25ee">
</g>
      <g
         id="g2003"
         style="fill-opacity:1;fill:#0f25ee">
</g>
      <g
         id="g2005"
         style="fill-opacity:1;fill:#0f25ee">
</g>
      <g
         id="g2007"
         style="fill-opacity:1;fill:#0f25ee">
</g>
    </g>
  </g>
</svg>
