<?xml version="1.0" encoding="UTF-8" standalone="no"?>
<svg
   xmlns:dc="http://purl.org/dc/elements/1.1/"
   xmlns:cc="http://creativecommons.org/ns#"
   xmlns:rdf="http://www.w3.org/1999/02/22-rdf-syntax-ns#"
   xmlns:svg="http://www.w3.org/2000/svg"
   xmlns="http://www.w3.org/2000/svg"
   width="512"
   height="512"
   viewBox="0 0 135.46666 135.46667"
   version="1.1"
   id="svg1220">
  <defs
     id="defs1214" />
  <metadata
     id="metadata1217">
    <rdf:RDF>
      <cc:Work
         rdf:about="">
        <dc:format>image/svg+xml</dc:format>
        <dc:type
           rdf:resource="http://purl.org/dc/dcmitype/StillImage" />
        <dc:title></dc:title>
      </cc:Work>
    </rdf:RDF>
  </metadata>
  <g
     id="layer1"
     transform="translate(-201.04475,24.423032)">
    <path
       class="a"
       d="m 324.38503,30.953246 a 3.7065586,3.7065586 0 0 0 -3.70716,3.70713 v 3.707119 h -10.20146 a 41.766962,41.766962 0 0 0 -8.72412,-21.040833 l 7.21951,-7.21998 2.90604,2.460578 a 3.7069539,3.7069539 0 1 0 5.24269,-5.242136 L 304.76362,-5.0319572 a 3.7068914,3.7068914 0 0 0 -5.24248,5.24212513 l 2.46066,2.90584307 -7.21994,7.219947 A 41.772026,41.772026 0 0 0 273.72094,1.6124002 V -8.5894356 h 3.70706 a 3.7071299,3.7071299 0 0 0 0,-7.4142594 h -17.29984 a 3.7071299,3.7071299 0 0 0 0,7.4142594 h 3.70706 V 1.6124002 a 41.772026,41.772026 0 0 0 -21.04081,8.7235578 l -7.22005,-7.219947 2.46065,-2.90584307 A 3.7068914,3.7068914 0 0 0 232.79254,-5.0319572 L 220.72022,7.325124 a 3.706985,3.706985 0 0 0 5.2428,5.242136 l 2.62135,-2.460578 7.2195,7.21998 a 41.766962,41.766962 0 0 0 -8.72423,21.040833 h -10.20135 v -3.707119 a 3.7071269,3.7071269 0 0 0 -7.41421,0 v 17.299925 a 3.7071269,3.7071269 0 0 0 7.41421,0 v -3.70713 h 10.20135 a 41.766962,41.766962 0 0 0 8.72411,21.040832 l -7.21938,7.219981 -2.90594,-2.460568 a 3.7069886,3.7069886 0 0 0 -5.24281,5.242137 l 12.35692,12.357092 a 3.7068969,3.7068969 0 1 0 5.24247,-5.242136 l -2.46065,-2.905844 7.21972,-7.219947 a 41.771903,41.771903 0 0 0 21.04114,8.723559 v 10.201844 h -3.70706 a 3.7071309,3.7071309 0 0 0 0,7.414259 H 277.428 a 3.7071309,3.7071309 0 0 0 0,-7.414259 h -3.70706 V 85.008277 a 41.771903,41.771903 0 0 0 21.04114,-8.723559 l 7.21962,7.219947 -2.46066,2.905844 a 3.7068969,3.7068969 0 0 0 5.24247,5.242136 l 12.35702,-12.357092 a 3.706985,3.706985 0 1 0 -5.2428,-5.242137 l -2.90593,2.460568 -7.21951,-7.219981 a 41.766962,41.766962 0 0 0 8.72412,-21.040832 h 10.20146 v 3.70713 a 3.7071277,3.7071277 0 0 0 7.41421,0 V 34.660376 a 3.7065586,3.7065586 0 0 0 -3.70705,-3.70713 z m -69.19978,2.471417 a 8.6499626,8.6499626 0 1 1 8.64997,-8.649963 8.6498144,8.6498144 0 0 1 -8.64997,8.649963 z m 28.42132,32.128432 a 4.9428358,4.9428358 0 1 1 4.94281,-4.942832 4.9429839,4.9429839 0 0 1 -4.94281,4.942832 z"
       id="path928-3"
       style="fill:#6366f1;fill-opacity:1;stroke-width:2.47142" />
  </g>
</svg>
