<?xml version="1.0" encoding="UTF-8" standalone="no"?>
<svg
   xmlns:dc="http://purl.org/dc/elements/1.1/"
   xmlns:cc="http://creativecommons.org/ns#"
   xmlns:rdf="http://www.w3.org/1999/02/22-rdf-syntax-ns#"
   xmlns:svg="http://www.w3.org/2000/svg"
   xmlns="http://www.w3.org/2000/svg"
   xmlns:xlink="http://www.w3.org/1999/xlink"
   xmlns:sodipodi="http://sodipodi.sourceforge.net/DTD/sodipodi-0.dtd"
   xmlns:inkscape="http://www.inkscape.org/namespaces/inkscape"
   width="1200"
   height="1200"
   viewBox="0 0 317.49998 317.5"
   version="1.1"
   id="svg1220"
   sodipodi:docname="tw-image.svg"
   inkscape:version="1.0.1 (3bc2e813f5, 2020-09-07)"
   inkscape:export-filename="/home/thejoeejoee/projs/covidbezbarier.cz/static/tw-image.png"
   inkscape:export-xdpi="96"
   inkscape:export-ydpi="96">
  <sodipodi:namedview
     pagecolor="#ffffff"
     bordercolor="#666666"
     borderopacity="1"
     objecttolerance="10"
     gridtolerance="10"
     guidetolerance="10"
     inkscape:pageopacity="0"
     inkscape:pageshadow="2"
     inkscape:window-width="2560"
     inkscape:window-height="1573"
     id="namedview1017"
     showgrid="false"
     inkscape:zoom="0.70710678"
     inkscape:cx="420.48089"
     inkscape:cy="509.18088"
     inkscape:window-x="0"
     inkscape:window-y="-10"
     inkscape:window-maximized="1"
     inkscape:current-layer="svg1220"
     showguides="true"
     inkscape:guide-bbox="true"
     inkscape:document-rotation="0">
    <sodipodi:guide
       position="-58.499455,23.812499"
       orientation="0,1"
       id="guide2794"
       inkscape:label=""
       inkscape:locked="false"
       inkscape:color="rgb(0,0,255)" />
    <sodipodi:guide
       position="-28.833855,293.68749"
       orientation="0,1"
       id="guide2796"
       inkscape:label=""
       inkscape:locked="false"
       inkscape:color="rgb(0,0,255)" />
    <sodipodi:guide
       position="23.812499,456.31979"
       orientation="-1,0"
       id="guide1057"
       inkscape:label=""
       inkscape:locked="false"
       inkscape:color="rgb(0,0,255)" />
    <sodipodi:guide
       position="293.68749,421.89548"
       orientation="-1,0"
       id="guide1059"
       inkscape:label=""
       inkscape:locked="false"
       inkscape:color="rgb(0,0,255)" />
  </sodipodi:namedview>
  <defs
     id="defs1214">
    <rect
       x="13.456034"
       y="100.22798"
       width="96.656538"
       height="67.197329"
       id="rect2731" />
    <linearGradient
       id="linearGradient2666">
      <stop
         style="stop-color:#000000;stop-opacity:1;"
         offset="0"
         id="stop2662" />
      <stop
         style="stop-color:#000000;stop-opacity:0;"
         offset="1"
         id="stop2664" />
    </linearGradient>
    <linearGradient
       xlink:href="#linearGradient2666"
       id="linearGradient2668"
       x1="56.574871"
       y1="119.49869"
       x2="135.24992"
       y2="119.49869"
       gradientUnits="userSpaceOnUse" />
  </defs>
  <metadata
     id="metadata1217">
    <rdf:RDF>
      <cc:Work
         rdf:about="">
        <dc:format>image/svg+xml</dc:format>
        <dc:type
           rdf:resource="http://purl.org/dc/dcmitype/StillImage" />
        <dc:title />
      </cc:Work>
    </rdf:RDF>
  </metadata>
  <rect
     style="fill:#000000;fill-opacity:0.04;stroke-width:0.510623;stroke-linecap:round;paint-order:fill markers stroke"
     id="rect2798"
     width="317.5"
     height="317.5"
     x="0"
     y="1.4210855e-14" />
  <g
     id="g1117"
     transform="matrix(0.94504683,0,0,0.94504683,8.7238117,8.8098816)">
    <g
       id="g2762"
       transform="matrix(1.5428571,0,0,1.538203,-92.368469,-3.5090249)">
      <g
         id="layer1-5"
         transform="matrix(3.9636538,0,0,3.9636538,-713.79591,122.19483)">
        <path
           style="fill:#ffffff;fill-opacity:1;stroke:none;stroke-width:0.264583px;stroke-linecap:butt;stroke-linejoin:miter;stroke-opacity:1"
           d="m 200.2419,-12.93288 c 0.46271,0.992729 1.07961,2.473787 2.02966,3.9448955 0.95004,1.4711088 2.23306,2.9322495 3.12948,3.8578135 0.89642,0.925564 1.40614,1.3155596 2.15461,1.0889149 0.74848,-0.2266446 1.73593,-1.0696632 2.5645,-2.0058763 0.82858,-0.9362131 1.4983,-1.9656546 2.20852,-3.0901216 0.71022,-1.124467 1.46091,-2.34391 2.02856,-3.608795 0.56765,-1.264885 0.95225,-2.575242 1.08948,-4.039344 0.13724,-1.464102 0.027,-3.08197 -0.32184,-4.410276 -0.34889,-1.328307 -0.93659,-2.367016 -1.79404,-3.188093 -0.85746,-0.821077 -1.98475,-1.42434 -3.18734,-1.842434 -1.20259,-0.418093 -2.48041,-0.650888 -3.66392,-0.494292 -1.1835,0.156596 -2.27243,0.702676 -3.23715,1.303378 -0.96473,0.600703 -1.80513,1.255969 -2.49803,1.97155 -0.6929,0.715581 -1.23819,1.491351 -1.55843,2.33312 -0.32024,0.841769 -0.4154,1.749298 -0.38189,2.789967 0.0335,1.04067 0.19565,2.214356 0.43109,3.053418 0.23544,0.839062 0.54402,1.343446 1.00674,2.336175 z"
           id="path1793" />
        <g
           id="g1201"
           style="fill:#3d8f62;fill-opacity:1"
           transform="matrix(0.26458333,0,0,0.26458333,220.8247,-20.781901)">
          <path
             d="m -51.755902,-25.956328 c -19.476223,0 -35.320945,15.8511 -35.320945,35.334977 0,29.029682 31.805211,57.37465 33.159649,58.567397 0.617422,0.543752 1.389199,0.816107 2.161296,0.816107 0.772096,0 1.543874,-0.272036 2.161615,-0.816107 1.3538,-1.192428 33.15933,-29.537397 33.15933,-58.567397 0,-19.483877 -15.844722,-35.334977 -35.320945,-35.334977 z m 0,86.964986 c -7.031787,-6.813967 -28.77997,-29.668471 -28.77997,-51.630009 0,-15.8769325 12.910691,-28.794002 28.77997,-28.794002 15.869279,0 28.77997,12.9170695 28.77997,28.794002 0,21.961219 -21.748183,44.815723 -28.77997,51.630009 z"
             id="path1015"
             style="fill:#818cf8;fill-opacity:1;stroke-width:0.318916" />
        </g>
        <path
           class="a"
           d="m 212.87283,-19.590054 a 0.38149242,0.38149242 0 0 0 -0.38155,0.381551 v 0.381551 h -1.04997 a 4.2988069,4.2988069 0 0 0 -0.89792,-2.165599 l 0.74306,-0.743106 0.2991,0.253251 a 0.38153311,0.38153311 0 1 0 0.53959,-0.539539 l -1.27181,-1.271836 a 0.38152668,0.38152668 0 0 0 -0.53958,0.539538 l 0.25326,0.29908 -0.7431,0.743103 a 4.2993281,4.2993281 0 0 0 -2.16561,-0.89786 v -1.05001 h 0.38155 a 0.381551,0.381551 0 0 0 0,-0.763102 h -1.78057 a 0.381551,0.381551 0 0 0 0,0.763102 h 0.38155 v 1.05001 a 4.2993281,4.2993281 0 0 0 -2.1656,0.89786 l -0.74311,-0.743103 0.25326,-0.29908 a 0.38152668,0.38152668 0 0 0 -0.53958,-0.539538 l -1.24252,1.271836 a 0.38153325,0.38153325 0 0 0 0.5396,0.539539 l 0.2698,-0.253251 0.74306,0.743106 a 4.2988069,4.2988069 0 0 0 -0.89793,2.165599 h -1.04996 v -0.381551 a 0.38155092,0.38155092 0 0 0 -0.7631,0 v 1.780571 a 0.38155092,0.38155092 0 0 0 0.7631,0 v -0.381551 h 1.04996 a 4.2988069,4.2988069 0 0 0 0.89792,2.165599 l -0.74305,0.743106 -0.29909,-0.25325 a 0.3815334,0.3815334 0 0 0 -0.5396,0.539539 l 1.27181,1.271837 a 0.38152724,0.38152724 0 1 0 0.53958,-0.53954 l -0.25326,-0.29908 0.74308,-0.743103 a 4.2993154,4.2993154 0 0 0 2.16563,0.897861 v 1.050011 h -0.38155 a 0.381551,0.381551 0 0 0 0,0.763102 h 1.78057 a 0.381551,0.381551 0 0 0 0,-0.763102 h -0.38155 v -1.050011 a 4.2993154,4.2993154 0 0 0 2.16563,-0.897861 l 0.74307,0.743103 -0.25326,0.29908 a 0.38152724,0.38152724 0 0 0 0.53958,0.53954 l 1.27182,-1.271837 a 0.3815334,0.3815334 0 1 0 -0.5396,-0.539539 l -0.29909,0.25325 -0.74306,-0.743106 a 4.2988069,4.2988069 0 0 0 0.89792,-2.165599 h 1.04997 v 0.381551 a 0.381551,0.381551 0 0 0 0.7631,0 v -1.780571 a 0.38149242,0.38149242 0 0 0 -0.38155,-0.381551 z m -7.12229,0.254367 a 0.89028545,0.89028545 0 1 1 0.89029,-0.890285 0.89027019,0.89027019 0 0 1 -0.89029,0.890285 z m 2.92523,3.306775 a 0.50873454,0.50873454 0 1 1 0.50873,-0.508734 0.5087498,0.5087498 0 0 1 -0.50873,0.508734 z"
           id="path928-3-3"
           style="fill:#0d23f2;fill-opacity:1;stroke-width:0.254368" />
      </g>
    </g>
    <g
       id="layer1"
       transform="matrix(6.1153536,0,0,6.0969063,-1022.204,184.4515)">
      <g
         id="g2755">
        <path
           style="fill:#ffffff;fill-opacity:1;stroke:none;stroke-width:0.264583px;stroke-linecap:butt;stroke-linejoin:miter;stroke-opacity:1"
           d="m 200.2419,-12.93288 c 0.46271,0.992729 1.07961,2.473787 2.02966,3.9448955 0.95004,1.4711088 2.23306,2.9322495 3.12948,3.8578135 0.89642,0.925564 1.40614,1.3155596 2.15461,1.0889149 0.74848,-0.2266446 1.73593,-1.0696632 2.5645,-2.0058763 0.82858,-0.9362131 1.4983,-1.9656546 2.20852,-3.0901216 0.71022,-1.124467 1.46091,-2.34391 2.02856,-3.608795 0.56765,-1.264885 0.95225,-2.575242 1.08948,-4.039344 0.13724,-1.464102 0.027,-3.08197 -0.32184,-4.410276 -0.34889,-1.328307 -0.93659,-2.367016 -1.79404,-3.188093 -0.85746,-0.821077 -1.98475,-1.42434 -3.18734,-1.842434 -1.20259,-0.418093 -2.48041,-0.650888 -3.66392,-0.494292 -1.1835,0.156596 -2.27243,0.702676 -3.23715,1.303378 -0.96473,0.600703 -1.80513,1.255969 -2.49803,1.97155 -0.6929,0.715581 -1.23819,1.491351 -1.55843,2.33312 -0.32024,0.841769 -0.4154,1.749298 -0.38189,2.789967 0.0335,1.04067 0.19565,2.214356 0.43109,3.053418 0.23544,0.839062 0.54402,1.343446 1.00674,2.336175 z"
           id="path1793-9" />
        <path
           d="m 207.13095,-27.649514 c -5.15308,0 -9.34533,4.193937 -9.34533,9.349046 0,7.68077 8.41513,15.1803761 8.77349,15.4959571 0.16336,0.1438677 0.36756,0.2159283 0.57184,0.2159283 0.20428,0 0.40848,-0.071976 0.57193,-0.2159283 0.35819,-0.3154966 8.7734,-7.8151031 8.7734,-15.4959571 0,-5.155109 -4.19224,-9.349046 -9.34533,-9.349046 z m 0,23.0094859 c -1.86049,-1.8028621 -7.6147,-7.8497829 -7.6147,-13.6604399 0,-4.200771 3.41595,-7.618413 7.6147,-7.618413 4.19875,0 7.6147,3.417642 7.6147,7.618413 0,5.810573 -5.75421,11.8574934 -7.6147,13.6604399 z"
           id="path1015-1"
           style="fill:#818cf8;fill-opacity:1;stroke-width:0.0843799" />
        <g
           id="g2033"
           transform="matrix(0.06359171,0,0,0.06359171,201.03172,-23.397717)"
           style="fill:#0f25ee;fill-opacity:1">
          <g
             id="g1977"
             transform="matrix(-0.83110666,0.83110666,-0.83110666,-0.83110666,248.13332,108.61202)"
             style="fill:#0f25ee;fill-opacity:1">
            <path
               d="m 182.274,0.879 c -1.171,-1.172 -3.071,-1.172 -4.242,0 L 145.331,33.58 c -1.5,-0.209 -3.074,0.245 -4.227,1.398 l -9.146,9.146 -11.538,-11.537 c -1.953,-1.952 -5.118,-1.952 -7.071,0 l -76.01,76.01 -1.521,-1.521 c -1.953,-1.952 -5.118,-1.952 -7.071,0 -1.953,1.953 -1.953,5.119 0,7.071 l 5.057,5.057 11.538,11.538 -27.828,27.827 -8.978,-8.978 c -1.953,-1.952 -5.118,-1.952 -7.071,0 -1.953,1.953 -1.953,5.119 0,7.071 l 25.027,25.027 c 0.977,0.976 2.256,1.464 3.536,1.464 1.279,0 2.559,-0.488 3.536,-1.464 1.953,-1.953 1.953,-5.119 0,-7.071 l -8.978,-8.978 27.828,-27.827 11.536,11.537 5.057,5.057 c 0.977,0.976 2.256,1.464 3.536,1.464 1.28,0 2.559,-0.488 3.536,-1.464 1.953,-1.953 1.953,-5.119 0,-7.071 l -1.521,-1.521 76.01,-76.01 c 0.938,-0.938 1.464,-2.209 1.464,-3.536 0,-1.327 -0.527,-2.598 -1.464,-3.536 l -11.538,-11.538 9.146,-9.146 c 1.153,-1.153 1.607,-2.728 1.398,-4.227 l 32.7,-32.7 c 1.172,-1.172 1.172,-3.072 0,-4.243 z M 67.486,138.743 44.41,115.667 58.827,101.25 70.365,112.788 c 0.585,0.586 1.354,0.879 2.121,0.879 0.767,0 1.536,-0.293 2.121,-0.879 1.172,-1.171 1.172,-3.071 0,-4.242 L 63.07,97.008 70.198,89.88 81.736,101.418 c 0.585,0.585 1.354,0.878 2.121,0.878 0.767,0 1.536,-0.293 2.122,-0.879 1.171,-1.171 1.171,-3.071 0,-4.243 L 74.441,85.637 81.569,78.509 93.107,90.047 c 0.585,0.586 1.354,0.879 2.121,0.879 0.767,0 1.536,-0.293 2.121,-0.879 1.172,-1.171 1.172,-3.071 0,-4.242 L 85.812,74.266 92.94,67.138 104.477,78.676 c 0.586,0.586 1.354,0.879 2.122,0.879 0.768,0 1.536,-0.293 2.121,-0.878 1.172,-1.172 1.172,-3.071 0,-4.243 L 97.183,62.895 116.885,43.193 139.96,66.268 Z"
               id="path1975"
               style="fill:#0f25ee;fill-opacity:1" />
          </g>
          <g
             id="g1979"
             style="fill:#0f25ee;fill-opacity:1" />
          <g
             id="g1981"
             style="fill:#0f25ee;fill-opacity:1" />
          <g
             id="g1983"
             style="fill:#0f25ee;fill-opacity:1" />
          <g
             id="g1985"
             style="fill:#0f25ee;fill-opacity:1" />
          <g
             id="g1987"
             style="fill:#0f25ee;fill-opacity:1" />
          <g
             id="g1989"
             style="fill:#0f25ee;fill-opacity:1" />
          <g
             id="g1991"
             style="fill:#0f25ee;fill-opacity:1" />
          <g
             id="g1993"
             style="fill:#0f25ee;fill-opacity:1" />
          <g
             id="g1995"
             style="fill:#0f25ee;fill-opacity:1" />
          <g
             id="g1997"
             style="fill:#0f25ee;fill-opacity:1" />
          <g
             id="g1999"
             style="fill:#0f25ee;fill-opacity:1" />
          <g
             id="g2001"
             style="fill:#0f25ee;fill-opacity:1" />
          <g
             id="g2003"
             style="fill:#0f25ee;fill-opacity:1" />
          <g
             id="g2005"
             style="fill:#0f25ee;fill-opacity:1" />
          <g
             id="g2007"
             style="fill:#0f25ee;fill-opacity:1" />
        </g>
      </g>
    </g>
  </g>
  <text
     xml:space="preserve"
     id="text2729"
     style="font-style:normal;font-variant:normal;font-weight:normal;font-stretch:normal;font-size:10.5833px;line-height:1;font-family:'High School USA Sans';-inkscape-font-specification:'High School USA Sans';text-align:center;letter-spacing:0px;word-spacing:0px;white-space:pre;shape-inside:url(#rect2731);fill:#0d23f2;fill-opacity:1;stroke:none;"
     transform="matrix(3.5227871,0,0,3.6323375,-60.131315,-196.15897)"
     x="18.841167"
     y="0"><tspan
       x="45.906646"
       y="110.02054"><tspan
         style="font-style:normal;font-variant:normal;font-weight:bold;font-stretch:normal;font-family:'Liberation Mono';-inkscape-font-specification:'Liberation Mono Bold';text-align:center;text-anchor:middle;fill:#0d23f2;fill-opacity:1">COVID
</tspan></tspan><tspan
       x="52.25766"
       y="122.43845"><tspan
         style="font-style:normal;font-variant:normal;font-weight:bold;font-stretch:normal;font-family:'Liberation Mono';-inkscape-font-specification:'Liberation Mono Bold';text-align:center;text-anchor:middle;fill:#0d23f2;fill-opacity:1">BEZ
</tspan></tspan><tspan
       x="42.73114"
       y="134.85636"><tspan
         style="font-style:normal;font-variant:normal;font-weight:bold;font-stretch:normal;font-family:'Liberation Mono';-inkscape-font-specification:'Liberation Mono Bold';text-align:center;text-anchor:middle;fill:#0d23f2;fill-opacity:1">BARIÉR</tspan></tspan></text>
</svg>
